<?xml version="1.0" encoding="utf-8"?>
<!-- Generator: Adobe Illustrator 25.2.3, SVG Export Plug-In . SVG Version: 6.00 Build 0)  -->
<svg version="1.1" id="Layer_1" xmlns="http://www.w3.org/2000/svg" xmlns:xlink="http://www.w3.org/1999/xlink" x="0px" y="0px"
	 viewBox="0 0 333.1 149.5" style="enable-background:new 0 0 333.1 149.5;" xml:space="preserve">
<style type="text/css">
	.st0{fill:#B98C49;}
</style>
<path class="st0" d="M325.9,2.9h-51V11h1.4v51h48.2V11h1.4V2.9z M323.7,61.2h-46.6V11.1h46.6V61.2z M275.7,10.2V3.7H325v6.5H275.7z"
	/>
<path class="st0" d="M243.6,17.6h-44.5v8.2h1.4V62h41.7V25.7h1.4L243.6,17.6z M241.4,61.2h-40.1V25.7h40.1V61.2z M242.8,24.9H200
	v-6.5h42.8V24.9z"/>
<path class="st0" d="M166.5,28.5h-34.1v8.3h0.9V62h32.2V36.8h0.9L166.5,28.5z M164.8,61.2h-30.6V36.8h30.6V61.2z M165.7,36h-32.4
	v-6.7h32.4L165.7,36L165.7,36z"/>
<path class="st0" d="M133.5,88c1.8,0.1,3.3-1.2,3.5-2.9c0-1.6-1.1-2.3-2.8-3c-1.2-0.4-2.2-0.9-2.2-2.1c0-0.9,0.8-1.7,1.7-1.7h0.1
	c0.6,0,1.2,0.2,1.7,0.5l0.8,1.9h0.2V78l-0.6,0.2c-0.7-0.2-1.3-0.3-2-0.3c-1.5-0.2-2.9,1-3,2.5v0.1c0,1.6,1.2,2.2,2.7,2.8
	c1.4,0.5,2.2,1,2.2,2.2c0,1.1-0.8,2-1.9,2.1h-0.1c-1,0-1.9-0.5-2.3-1.4l-0.5-1.3h-0.3l0.1,2.4C131.5,87.8,132.5,88,133.5,88z"/>
<path class="st0" d="M137.8,87.8h3.3v-0.2h-0.3c-0.6,0-0.7-0.1-0.7-0.2v-4.8c0.4-0.4,0.9-0.6,1.5-0.6c0.9,0,1.3,0.4,1.3,1.5v3.8
	c0,0.1-0.1,0.2-0.6,0.3H142v0.2h3.2v-0.2h-0.3c-0.7-0.1-0.7-0.1-0.7-0.2v-4.5c0-0.1,0-0.2,0-0.2c0.4-0.4,0.9-0.7,1.4-0.7
	c0.9,0,1.3,0.4,1.3,1.5v3.8c0,0.1-0.1,0.2-0.6,0.3H146v0.2h3.3v-0.2H149c-0.7-0.1-0.7-0.1-0.7-0.2v-4.2c0-0.6-0.1-1.2-0.5-1.6
	c-0.3-0.3-0.8-0.5-1.2-0.4c-0.9,0.1-1.8,0.6-2.4,1.3l0,0c0-0.3-0.2-0.6-0.4-0.8c-0.3-0.3-0.8-0.5-1.2-0.5c-0.9,0.1-1.7,0.5-2.3,1.2
	l0,0v-1.2l-2.3,0.6V82l0.4,0.1c0.5,0.1,0.6,0.3,0.6,1.2v4.2c0,0.2-0.2,0.2-0.6,0.3h-0.3L137.8,87.8z"/>
<path class="st0" d="M151.9,87.2c-0.6,0-1.1-0.5-1-1.1l0,0c0-0.7,0.4-1.4,2.4-1.8l-0.1,2.4C152.9,86.9,152.4,87.1,151.9,87.2z
	 M154.3,88c0.6,0,1.1-0.6,1.5-1l-0.1-0.1c-0.2,0.2-0.4,0.3-0.7,0.4c-0.3,0-0.5-0.3-0.5-0.7l0.1-2.8c0.1-2.1-0.5-2.6-2-2.6
	c-1.2,0-3,1-3,1.8c0.1,0.4,0.5,0.7,0.9,0.6c0.3-0.1,0.6-0.3,0.6-0.7c0-0.4-0.4-0.7-0.4-0.8c0-0.1,0.6-0.4,1.1-0.4
	c0.9,0,1.5,0.5,1.5,2.1v0.4c-2.8,0.6-3.7,1.4-3.7,2.5c0,0.9,0.8,1.6,1.6,1.6c0.8-0.1,1.5-0.5,1.9-1.1l0,0
	C153.3,87.6,153.6,88,154.3,88z"/>
<path class="st0" d="M155.9,87.8h3.3v-0.2h-0.3c-0.6-0.1-0.7-0.1-0.7-0.2v-9.9l-2.3,0.6v0.2l0.5,0.2c0.4,0.1,0.5,0.2,0.5,0.9v8
	c0,0.2-0.2,0.2-0.6,0.3L155.9,87.8L155.9,87.8z"/>
<path class="st0" d="M159.7,87.8h3.3v-0.2h-0.3c-0.6-0.1-0.7-0.1-0.7-0.2v-9.9l-2.3,0.6v0.2l0.5,0.2c0.4,0.1,0.5,0.2,0.5,0.9v8
	c0,0.2-0.2,0.2-0.6,0.3L159.7,87.8L159.7,87.8z"/>
<path class="st0" d="M195.3,87.8h3.4v-0.2h-0.4c-0.9,0-1.1-0.3-1.1-1.3l0.2-7.2c0.1,0.1,0.2,0.2,0.2,0.4l3.1,8.3h0.3l3.3-8.7l0,0
	l0.2,7.4c0,0.8-0.1,1-0.5,1.1l-0.8,0.1v0.2h4.1v-0.2l-0.6-0.1c-0.6-0.1-0.7-0.2-0.7-1.1l-0.2-7.6c0-0.1,0.2-0.3,0.6-0.3l0.8-0.1
	v-0.2h-3l-2.8,7.5l0,0l-2.7-7.5h-3v0.2l0.6,0.1c0.4,0,0.7,0.2,0.8,0.6l-0.2,7.1c0,1.1-0.2,1.3-1,1.3h-0.5L195.3,87.8z"/>
<path class="st0" d="M209.1,83.3c0.2-1.1,0.9-2,1.8-2c0.9,0,1.3,0.9,1.2,2H209.1z M210.7,88c1.2,0,2.3-0.8,2.8-2l-0.2-0.1
	c-0.4,0.7-1.2,1.1-2,1.1c-1.3,0-2.4-1.1-2.4-2.9c0-0.2,0-0.4,0-0.6h4.4c0-0.1,0-0.3,0-0.4c0-1.2-0.9-2.2-2.1-2.2c-0.1,0-0.2,0-0.3,0
	c-1.9,0-3.4,1.6-3.4,3.5v0.1c-0.1,1.7,1.2,3.2,2.9,3.3C210.6,88,210.7,88,210.7,88L210.7,88z"/>
<path class="st0" d="M217.8,87.1c-1.3,0-2.1-1.2-2.1-2.8c0-1.6,0.7-2.9,1.8-2.9c0.8,0.1,1.5,0.6,1.8,1.4v3.6
	C219,86.8,218.4,87.1,217.8,87.1z M219.4,88l2.3-0.4v-0.2l-0.8-0.2c-0.2,0-0.2-0.1-0.2-0.4v-9.4l-2.4,0.5v0.2l0.7,0.2
	c0.4,0.1,0.5,0.2,0.5,0.6v2.6l0,0c-0.5-0.2-1-0.3-1.5-0.3c-1.9,0-3.5,1.5-3.5,3.5c0,0.1,0,0.1,0,0.2c0,1.9,1.2,3.2,2.7,3.2
	c0.9,0,1.8-0.5,2.3-1.3l0,0V88H219.4z"/>
<path class="st0" d="M221.9,87.8h3.3v-0.2h-0.3c-0.6,0-0.7-0.1-0.7-0.2V81l-2.2,0.6v0.2l0.4,0.1c0.5,0.1,0.6,0.3,0.6,1.2v4.2
	c0,0.2-0.2,0.2-0.6,0.3h-0.3L221.9,87.8z M223.4,79.7c0.5,0,0.9-0.4,0.9-0.9s-0.4-0.9-0.9-0.9s-0.9,0.4-0.9,0.9l0,0
	C222.5,79.3,222.9,79.7,223.4,79.7C223.3,79.7,223.4,79.7,223.4,79.7L223.4,79.7z"/>
<path class="st0" d="M230.6,88l2.3-0.5v-0.2l-0.8-0.2c-0.2,0-0.2-0.1-0.2-0.4v-5.5h-2.4v0.2h0.3c0.6,0,0.7,0.1,0.7,0.6v4.4
	c-0.4,0.4-1,0.6-1.6,0.6c-0.9,0-1.4-0.4-1.4-1.5v-4.4h-2.3v0.2h0.3c0.7,0.1,0.7,0.1,0.7,0.2v4.3c-0.1,0.6,0.1,1.1,0.5,1.6
	c0.3,0.3,0.8,0.5,1.2,0.5c1-0.1,1.8-0.5,2.5-1.2l0,0V88H230.6z"/>
<path class="st0" d="M233.2,87.8h3.3v-0.2h-0.3c-0.6,0-0.7-0.1-0.7-0.2v-4.8c0.4-0.4,0.9-0.6,1.5-0.6c0.9,0,1.3,0.4,1.3,1.5v3.8
	c0,0.1-0.1,0.2-0.6,0.3h-0.3v0.2h3.2v-0.2h-0.3c-0.7-0.1-0.7-0.1-0.7-0.2v-4.5c0-0.1,0-0.2,0-0.2c0.4-0.4,0.9-0.7,1.4-0.7
	c0.9,0,1.3,0.4,1.3,1.5v3.8c0,0.1-0.1,0.2-0.6,0.3h-0.3v0.2h3.3v-0.2h-0.3c-0.7-0.1-0.7-0.1-0.7-0.2v-4.2c0-0.6-0.1-1.2-0.5-1.6
	c-0.3-0.3-0.8-0.5-1.2-0.4c-0.9,0.1-1.8,0.6-2.4,1.3l0,0c0-0.3-0.2-0.6-0.4-0.8c-0.3-0.3-0.8-0.5-1.2-0.5c-0.9,0.1-1.7,0.5-2.3,1.2
	l0,0v-1.2l-2.3,0.6V82l0.4,0.1c0.5,0.1,0.6,0.3,0.6,1.2v4.2c0,0.2-0.2,0.2-0.6,0.3h-0.3L233.2,87.8z"/>
<path class="st0" d="M276.5,87.8h7.2l0.4-3.2h-0.3l-0.2,0.6c-0.6,1.4-0.9,2.3-3.2,2.3l-1.2-0.1v-8.6c0-0.1,0.2-0.2,0.7-0.3l0.9-0.1
	v-0.2h-4.3v0.2h0.5c0.7,0.1,0.7,0.1,0.7,0.2v8.5c0,0.1-0.1,0.2-0.6,0.3l-0.6,0.1V87.8z"/>
<path class="st0" d="M287.4,87.2c-0.6,0-1.1-0.5-1-1.1l0,0c0-0.7,0.4-1.4,2.4-1.8l-0.1,2.4C288.3,86.9,287.9,87.1,287.4,87.2z
	 M289.7,88c0.6,0,1.1-0.6,1.5-1l-0.1-0.1c-0.2,0.2-0.4,0.3-0.7,0.4c-0.3,0-0.5-0.3-0.5-0.7l0.1-2.8c0.1-2.1-0.5-2.6-2-2.6
	c-1.2,0-3,1-3,1.8c0.1,0.4,0.5,0.7,0.9,0.6c0.3-0.1,0.6-0.3,0.6-0.7c0-0.4-0.4-0.7-0.4-0.8c0-0.1,0.6-0.4,1.1-0.4
	c0.9,0,1.5,0.5,1.5,2.1v0.4c-2.8,0.6-3.7,1.4-3.7,2.5c0,0.9,0.8,1.6,1.6,1.6c0.8-0.1,1.5-0.5,1.9-1.1l0,0
	C288.8,87.6,289.1,88,289.7,88z"/>
<path class="st0" d="M291.4,87.8h3.5v-0.2h-0.5c-0.6,0-0.7-0.1-0.7-0.2V84c0.4-1.2,0.8-1.9,1.3-2c0,0.5,0.4,0.8,0.9,0.8
	s0.8-0.4,0.8-0.8l0,0c0-0.5-0.5-0.9-1-0.8c-0.9,0-1.5,0.8-2,2.3l0,0v-2.3l-2.3,0.6V82l0.4,0.1c0.5,0.1,0.6,0.3,0.6,1.2v4.2
	c0,0.2-0.2,0.2-0.6,0.3L291.4,87.8L291.4,87.8z"/>
<path class="st0" d="M300.2,91.2c-1.3,0-2.3-0.7-2.3-1.7c0-0.6,0.4-1.2,1-1.4c0.5-0.1,1.1-0.1,1.6-0.1c1.3,0,1.9,0.6,1.9,1.3
	C302.3,90.5,301.4,91.3,300.2,91.2L300.2,91.2z M300,85.3c-0.8,0-1.3-0.9-1.3-2.1s0.5-1.9,1.3-1.9c1,0,1.4,0.9,1.4,2.1
	C301.3,84.6,300.8,85.3,300,85.3z M299.4,91.6c2.4,0,3.9-1.2,3.9-2.9c0-1.1-0.8-1.8-2.2-1.8c-0.5,0-1.2,0-1.7,0
	c-0.7,0-1.2-0.2-1.2-0.7c0-0.4,0.4-0.7,0.8-0.8c0.3,0.1,0.6,0.1,0.9,0.1c1.4,0.1,2.5-0.9,2.7-2.3l0,0c0-0.5-0.2-0.9-0.5-1.3v-0.1
	l1.5,0.2l0.1-0.8l-1.9,0.3c-0.5-0.4-1.1-0.6-1.8-0.5c-1.3-0.1-2.5,0.9-2.6,2.3v0.1c0,0.9,0.5,1.7,1.3,2l0,0
	c-0.8,0.2-1.6,0.8-1.6,1.5c0,0.6,0.6,1.1,1.5,1.2l0,0c-0.8,0.3-1.7,0.9-1.7,1.8C296.9,91,297.8,91.6,299.4,91.6L299.4,91.6z"/>
<path class="st0" d="M305.3,83.3c0.2-1.1,0.9-2,1.8-2s1.3,0.9,1.2,2H305.3z M306.9,88c1.2,0,2.3-0.8,2.8-2l-0.2-0.1
	c-0.4,0.7-1.2,1.1-2,1.1c-1.3,0-2.4-1.1-2.4-2.9c0-0.2,0-0.4,0-0.6h4.4c0-0.1,0-0.3,0-0.4c0-1.2-0.9-2.2-2.1-2.2c-0.1,0-0.2,0-0.3,0
	c-1.9,0-3.4,1.6-3.4,3.5v0.1c-0.1,1.7,1.2,3.2,2.9,3.3C306.8,88,306.9,88,306.9,88L306.9,88z"/>
<path class="st0" d="M15.3,108.1v-2.5h0.4c1,0,1.4,0.4,1.4,1.2c0,0.7-0.5,1.2-1.4,1.2h-0.4V108.1z M15.8,111.2l-0.6-0.2v-2.8
	c0.2,0,0.3,0,0.5,0c0.8-0.1,1.6,0.5,1.6,1.4c0,0.1,0,0.1,0,0.2C17.3,110.6,16.7,111.2,15.8,111.2L15.8,111.2
	C16.1,111.2,15.8,111.2,15.8,111.2z M13.4,111.3h2.5c1.7,0,2.6-0.7,2.6-1.6c0-0.8-0.7-1.5-2-1.6l0,0c1.2-0.2,1.7-0.7,1.7-1.4
	c0-0.7-0.6-1.3-2.4-1.3h-2.5v0.2h0.3c0.4,0,0.5,0.1,0.5,0.1v5.3c0,0.1-0.1,0.1-0.4,0.2h-0.4L13.4,111.3z"/>
<path class="st0" d="M22.2,111.5c1.6,0,2.3-0.9,2.3-2.4v-2.7c0-0.7,0.2-0.8,0.6-0.9h0.3v-0.2h-2.1v0.2h0.3c0.5,0,0.7,0.2,0.7,0.8
	v2.6c0,1.3-0.6,2-1.7,2s-1.7-0.6-1.7-1.9v-3.4c0-0.1,0.1-0.1,0.4-0.2h0.4v-0.2h-2.8v0.2h0.4c0.4,0,0.5,0.1,0.5,0.1v3.7
	C19.8,110.9,20.5,111.5,22.2,111.5z"/>
<path class="st0" d="M28.2,108.3c-0.2,0-0.4,0-0.6-0.1v-2.6H28c1,0,1.5,0.5,1.5,1.4c0.1,0.7-0.5,1.3-1.1,1.3
	C28.3,108.3,28.2,108.3,28.2,108.3z M25.6,111.3h2.8v-0.2H28c-0.3,0-0.5-0.1-0.5-0.1v-2.7c0.2,0.1,0.4,0.1,0.6,0.1l1.5,2.6l0.2,0.3
	h1.9v-0.2h-0.2c-0.4,0-0.6-0.2-1-0.8l-1.3-2c0.8-0.1,1.4-0.7,1.4-1.5c0-1-0.8-1.5-2.4-1.5h-2.7v0.2h0.4c0.4,0,0.5,0.1,0.5,0.1v5.3
	c0,0.1-0.2,0.1-0.4,0.2h-0.4V111.3z"/>
<path class="st0" d="M37,111.4h0.3v-5c0-0.7,0.2-0.8,0.6-0.9h0.3v-0.2h-2.1v0.2h0.3c0.5,0,0.7,0.2,0.7,0.8v3.4l0,0l-3.4-4.4h-1.9
	v0.2H32c0.4,0.1,0.7,0.3,0.8,0.7v4.1c0,0.7-0.2,0.8-0.6,0.8h-0.3v0.2H34v-0.2h-0.3c-0.5,0-0.7-0.2-0.7-0.8v-4.1l0,0L37,111.4z"/>
<path class="st0" d="M41.7,111.3h2.9v-0.2h-0.4c-0.4,0-0.5-0.1-0.5-0.1v-5.4H44c0.8,0,1.5,0.5,1.7,1.3l0.1,0.3H46l-0.2-1.8h-5.2
	l-0.3,1.8h0.2l0.1-0.4c0.3-0.7,0.9-1.2,1.7-1.3h0.3v5.4c0,0.1-0.1,0.1-0.4,0.2h-0.5L41.7,111.3z"/>
<path class="st0" d="M46.6,111.3h2.8v-0.2h-0.3c-0.4,0-0.5-0.1-0.5-0.1v-5.3c0-0.1,0.1-0.1,0.4-0.2h0.4v-0.2h-2.8v0.2h0.3
	c0.4,0,0.5,0.1,0.5,0.1v5.3c0,0.1-0.1,0.1-0.4,0.2h-0.4V111.3z"/>
<path class="st0" d="M49.8,111.3H52v-0.2h-0.3c-0.6,0-0.7-0.2-0.7-0.8l0.1-4.4c0.1,0.1,0.1,0.1,0.1,0.2l1.9,5.2h0.2l2-5.4l0,0
	l0.1,4.6c0,0.5-0.1,0.6-0.3,0.6h-0.5v0.2h2.8v-0.2H57c-0.4,0-0.4-0.1-0.5-0.6l-0.1-4.7c0-0.1,0.1-0.2,0.4-0.2h0.5v-0.2h-2.1
	l-1.7,4.5l0,0l-1.6-4.5H50v0.2h0.3c0.2,0,0.4,0.1,0.5,0.4l-0.1,4.4c0,0.7-0.1,0.8-0.6,0.8L49.8,111.3L49.8,111.3z"/>
<path class="st0" d="M57.9,111.3h4.9l0.3-1.9h-0.2l-0.1,0.3c-0.2,0.9-1.2,1.6-2.1,1.4h-0.8v-2.7h0.3c0.9,0,1.2,0.1,1.2,0.7v0.3h0.2
	l0.2-2.2h-0.2l-0.1,0.3c-0.2,0.5-0.5,0.6-1.3,0.7h-0.4v-2.6h0.7c1.4,0,1.7,0.4,2,1.4l0.1,0.3h0.2l-0.1-1.9h-4.8v0.2h0.3
	c0.4,0,0.5,0.1,0.5,0.1v5.3c0,0.1-0.1,0.1-0.4,0.2H58L57.9,111.3z"/>
<path class="st0" d="M132.3,112.2h4.7l0.4-2.4h-0.2l-0.1,0.2c-0.4,0.9-0.7,1.2-1.5,1.2h-2.3l0,0c2-1.5,3.1-2.2,3.1-3.3
	c0-0.9-0.8-1.6-1.7-1.6l0,0c-1.1,0-2,0.7-2.3,1.8l0.1,0.1c0.3-0.6,0.8-1,1.5-1s1.2,0.5,1.2,1.2c0,0,0,0,0,0.1c0,1-0.9,1.7-3,3.4
	L132.3,112.2z"/>
<path class="st0" d="M137.9,112.2h4.7l0.4-2.4h-0.2l-0.1,0.2c-0.4,0.9-0.7,1.2-1.5,1.2h-2.3l0,0c2-1.5,3.1-2.2,3.1-3.3
	c0-0.9-0.8-1.6-1.7-1.6l0,0c-1.1,0-2,0.7-2.3,1.8l0.1,0.1c0.3-0.6,0.8-1,1.5-1s1.2,0.5,1.2,1.2c0,0,0,0,0,0.1c0,1-0.9,1.7-3,3.4
	L137.9,112.2z"/>
<path class="st0" d="M145.5,112.2h2.7V112H148c-0.5,0-0.5-0.1-0.5-0.2v-3.7c0.3-0.3,0.7-0.4,1.2-0.4c0.7,0,1.1,0.3,1.1,1.2v3
	c0,0.1-0.1,0.2-0.5,0.2h-0.2v0.2h2.7v-0.2h-0.2c-0.6,0-0.6-0.1-0.6-0.2v-3.3c0-0.5-0.1-0.9-0.4-1.3c-0.3-0.2-0.6-0.4-1-0.4
	c-0.8,0.1-1.5,0.4-2,1l0,0V104l-2,0.5v0.1l0.4,0.1c0.3,0.1,0.4,0.2,0.4,0.5v6.5c0,0.1-0.1,0.2-0.5,0.2h-0.2L145.5,112.2z"/>
<path class="st0" d="M151.9,112.2h2.9V112h-0.4c-0.5,0-0.6-0.1-0.6-0.2v-2.7c0.3-0.9,0.6-1.4,1-1.6c0,0.4,0.4,0.7,0.8,0.7
	c0.4,0,0.7-0.3,0.7-0.7l0,0c0-0.4-0.4-0.8-0.8-0.8l0,0c-0.7,0-1.2,0.7-1.6,1.8l0,0v-1.8l-2,0.5v0.1l0.3,0.1c0.4,0.1,0.5,0.2,0.5,1
	v3.3c0,0.1-0.1,0.2-0.5,0.2H152L151.9,112.2z"/>
<path class="st0" d="M158.5,112.4c1.4,0,2.1-0.8,2.1-1.7c0-1-0.8-1.4-1.6-1.7c-0.8-0.3-1.2-0.5-1.2-1.1c0-0.5,0.4-0.8,0.8-0.9h0.1
	c0.3,0,0.6,0.1,0.8,0.3l0.6,1.1h0.2l-0.1-1.6l-0.4,0.1c-0.4-0.1-0.8-0.2-1.2-0.2c-0.9-0.1-1.8,0.5-1.9,1.5v0.1c0,1,0.7,1.3,1.5,1.6
	c0.7,0.3,1.3,0.6,1.3,1.1s-0.5,1-1,1c0,0,0,0-0.1,0c-0.6,0-1.1-0.4-1.3-0.9l-0.3-0.7h-0.3l0.1,1.5
	C157.3,112.3,157.9,112.4,158.5,112.4z"/>
<path class="st0" d="M208.5,112.1c-1.1,0-1.6-1.2-1.6-2.7c0-0.3,0-0.6,0.1-0.9c0.3-0.3,0.7-0.5,1.2-0.5c0.9,0,1.6,0.8,1.6,2.1
	S209.4,112.1,208.5,112.1z M208.4,112.4c1.4,0,2.6-1.1,2.7-2.5v-0.1c0.1-1.2-0.8-2.2-2-2.3c-0.1,0-0.1,0-0.2,0
	c-0.7,0-1.3,0.3-1.8,0.7l0,0c0.5-1.9,2.1-3.4,4-3.7v-0.2c-3,0.2-5.4,2.3-5.4,5.1c-0.1,1.5,1,2.9,2.5,3
	C208.3,112.4,208.3,112.4,208.4,112.4L208.4,112.4z"/>
<path class="st0" d="M212.9,114.6c1.6,0,2.9-1.2,3-2.7c0-1.3-1.1-2.4-3.4-2.8l0.4-1.5h3.1l0.2-1.1h-3.3l-0.9,3.7
	c1.8,0.3,2.9,1.1,2.9,2.4c0.1,0.9-0.6,1.7-1.5,1.8l0,0c-0.2,0-0.3,0-0.5-0.1c0-0.5-0.3-1.1-0.9-1.1c-0.3,0-0.6,0.3-0.6,0.6l0,0
	C211.4,114.3,211.9,114.6,212.9,114.6z"/>
<path class="st0" d="M218.8,112.2h2.7V112h-0.2c-0.5,0-0.5-0.1-0.5-0.2v-3.7c0.3-0.3,0.7-0.4,1.2-0.4c0.7,0,1.1,0.3,1.1,1.2v3
	c0,0.1-0.1,0.2-0.5,0.2h-0.2v0.2h2.7v-0.2h-0.2c-0.6,0-0.6-0.1-0.6-0.2v-3.3c0-0.5-0.1-0.9-0.4-1.3c-0.3-0.2-0.6-0.4-1-0.4
	c-0.8,0.1-1.5,0.4-2,1l0,0V104l-2,0.5v0.1l0.4,0.1c0.3,0.1,0.4,0.2,0.4,0.5v6.5c0,0.1-0.1,0.2-0.5,0.2H219L218.8,112.2z"/>
<path class="st0" d="M225.2,112.2h2.9V112h-0.4c-0.5,0-0.6-0.1-0.6-0.2v-2.7c0.3-0.9,0.6-1.4,1-1.6c0,0.4,0.4,0.7,0.8,0.7
	c0.4,0,0.7-0.3,0.7-0.7l0,0c0-0.4-0.4-0.8-0.8-0.8l0,0c-0.7,0-1.2,0.7-1.6,1.8l0,0v-1.8l-2,0.5v0.1l0.3,0.1c0.4,0.1,0.5,0.2,0.5,1
	v3.3c0,0.1-0.1,0.2-0.5,0.2h-0.2L225.2,112.2z"/>
<path class="st0" d="M231.8,112.4c1.4,0,2.1-0.8,2.1-1.7c0-1-0.8-1.4-1.6-1.7c-0.8-0.3-1.2-0.5-1.2-1.1c0-0.5,0.4-0.8,0.8-0.9h0.1
	c0.3,0,0.6,0.1,0.8,0.3l0.6,1.1h0.2l-0.1-1.6l-0.4,0.1c-0.4-0.1-0.8-0.2-1.2-0.2c-0.9-0.1-1.8,0.5-1.9,1.5v0.1c0,1,0.7,1.3,1.5,1.6
	c0.7,0.3,1.3,0.6,1.3,1.1s-0.5,1-1,1c0,0,0,0-0.1,0c-0.6,0-1.1-0.4-1.3-0.9l-0.3-0.7h-0.3l0.1,1.5
	C230.6,112.3,231.2,112.4,231.8,112.4z"/>
<path class="st0" d="M280.9,110.7c-0.9,0-1.6-0.9-1.6-2.1c0-1.3,0.5-2,1.3-2c1.1,0,1.6,1.3,1.6,2.7c0,0.3,0,0.6-0.1,0.9
	C281.8,110.5,281.4,110.7,280.9,110.7z M278.1,114.4c3-0.3,5.4-2.4,5.4-5.1c0.1-1.5-1-2.9-2.6-3c-0.1,0-0.1,0-0.2,0
	c-1.5,0-2.7,1.1-2.7,2.5v0.1c-0.1,1.2,0.8,2.2,1.9,2.3c0.1,0,0.1,0,0.2,0c0.7,0,1.3-0.3,1.8-0.7l0,0c-0.5,1.9-2,3.4-4,3.7
	L278.1,114.4z"/>
<path class="st0" d="M287.3,112.1c-1.1,0-1.7-1.1-1.7-2.9c0-1.4,0.7-2.6,1.7-2.6c1.1,0,1.7,1.1,1.7,2.8
	C289,110.9,288.4,112.1,287.3,112.1z M287.3,112.4c1.6,0.1,3-1.2,3-2.8c0-0.1,0-0.1,0-0.2c0.1-1.6-1.2-2.9-2.8-3c-0.1,0-0.1,0-0.2,0
	c-1.6,0-3,1.3-3,2.9c0,0.1,0,0.1,0,0.2c-0.1,1.6,1.1,2.9,2.7,3C287.1,112.4,287.2,112.4,287.3,112.4L287.3,112.4z"/>
<path class="st0" d="M293,112.2h2.7V112h-0.2c-0.5,0-0.5-0.1-0.5-0.2v-3.7c0.3-0.3,0.7-0.4,1.2-0.4c0.7,0,1.1,0.3,1.1,1.2v3
	c0,0.1-0.1,0.2-0.5,0.2h-0.2v0.2h2.7v-0.2h-0.2c-0.6,0-0.6-0.1-0.6-0.2v-3.3c0-0.5-0.1-0.9-0.4-1.3c-0.3-0.2-0.6-0.4-1-0.4
	c-0.8,0.1-1.5,0.4-2,1l0,0V104l-2,0.5v0.1l0.4,0.1c0.3,0.1,0.4,0.2,0.4,0.5v6.5c0,0.1-0.1,0.2-0.5,0.2h-0.2L293,112.2z"/>
<path class="st0" d="M299.4,112.2h2.9V112h-0.4c-0.5,0-0.6-0.1-0.6-0.2v-2.7c0.3-0.9,0.6-1.4,1-1.6c0,0.4,0.4,0.7,0.8,0.7
	s0.7-0.3,0.7-0.7l0,0c0-0.4-0.4-0.8-0.8-0.8l0,0c-0.7,0-1.2,0.7-1.6,1.8l0,0v-1.8l-2,0.5v0.1l0.3,0.1c0.4,0.1,0.5,0.2,0.5,1v3.3
	c0,0.1-0.1,0.2-0.5,0.2h-0.2L299.4,112.2z"/>
<path class="st0" d="M306,112.4c1.4,0,2.1-0.8,2.1-1.7c0-1-0.8-1.4-1.6-1.7c-0.8-0.3-1.2-0.5-1.2-1.1c0-0.5,0.4-0.8,0.8-0.9h0.1
	c0.3,0,0.6,0.1,0.8,0.3l0.6,1.1h0.2l-0.1-1.6l-0.4,0.1c-0.4-0.1-0.8-0.2-1.2-0.2c-0.9-0.1-1.8,0.5-1.9,1.5v0.1c0,1,0.7,1.3,1.5,1.6
	c0.7,0.3,1.3,0.6,1.3,1.1s-0.5,1-1,1c0,0,0,0-0.1,0c-0.6,0-1.1-0.4-1.3-0.9l-0.3-0.7H304l0.1,1.5C304.9,112.3,305.4,112.4,306,112.4
	z"/>
<path class="st0" d="M16,137h0.3l1.6-4.2l0,0l1.5,4.2h0.3l1.5-4.2c0.5-1.4,0.6-1.6,1.1-1.7h0.2v-0.2h-2.2v0.2h0.2
	c0.8,0.1,0.8,0.3,0.3,1.6l-1,2.9l0,0l-1.3-3.7c-0.2-0.6-0.2-0.8,0.2-0.8H19v-0.2h-2.8v0.2h0.3c0.4,0,0.5,0.2,0.8,0.9l0.2,0.5
	l-1.2,3.2l0,0l-1.3-3.8c-0.2-0.6-0.2-0.7,0.3-0.8h0.3v-0.2h-2.8v0.2h0.3c0.4,0,0.5,0.2,0.8,0.9L16,137z"/>
<path class="st0" d="M22.6,136.8h4.9l0.3-1.9h-0.2l-0.1,0.3c-0.2,0.9-1.2,1.6-2.1,1.4h-0.8v-2.7h0.3c0.9,0,1.2,0.1,1.2,0.7v0.3h0.2
	l0.2-2.2h-0.2l-0.1,0.3c-0.2,0.5-0.5,0.6-1.3,0.7h-0.4v-2.6h0.7c1.4,0,1.7,0.4,2,1.4l0.1,0.3h0.2l-0.1-1.9h-4.8v0.2h0.3
	c0.4,0,0.5,0.1,0.5,0.1v5.3c0,0.1-0.1,0.1-0.4,0.2h-0.3L22.6,136.8z"/>
<path class="st0" d="M28.4,136.8h2.8v-0.2h-0.3c-0.4,0-0.5-0.1-0.5-0.1v-5.3c0-0.1,0.1-0.1,0.4-0.2h0.4v-0.2h-2.8v0.2h0.3
	c0.4,0,0.5,0.1,0.5,0.1v5.3c0,0.1-0.1,0.1-0.4,0.2h-0.4V136.8z"/>
<path class="st0" d="M35.1,137c0.9,0,1.9-0.2,2.8-0.6v-0.1h-0.5v-1.7c0-0.1,0.1-0.1,0.4-0.1h0.4v-0.2h-2.8v0.2h0.4
	c0.4,0,0.5,0.1,0.5,0.1v1.9c-0.3,0.2-0.7,0.3-1.1,0.3c-1.2,0-2.2-1.1-2.2-3c0-1.6,0.8-2.9,2.3-2.9c0.5,0,0.9,0.1,1.3,0.3l0.7,1.5
	h0.2v-1.9l-0.6,0.2c-0.5-0.2-1-0.3-1.5-0.3c-1.7-0.2-3.3,1.1-3.5,2.8c0,0.1,0,0.2,0,0.3c0,1.7,1.3,3.1,3,3.1
	C34.9,137,35,137,35.1,137z"/>
<path class="st0" d="M38.5,136.8h2.7v-0.2h-0.3c-0.4,0-0.5-0.1-0.5-0.1v-2.6h2.8v2.6c0,0.1-0.1,0.1-0.4,0.2h-0.4v0.2h2.7v-0.2h-0.3
	c-0.4,0-0.5-0.1-0.5-0.1v-5.3c0-0.1,0.1-0.1,0.4-0.2h0.4v-0.2h-2.7v0.2h0.3c0.4,0,0.5,0.1,0.5,0.1v2.5h-2.8v-2.5
	c0-0.1,0.1-0.1,0.4-0.2h0.4v-0.2h-2.7v0.2h0.3c0.4,0,0.5,0.1,0.5,0.1v5.3c0,0.1-0.1,0.1-0.4,0.2h-0.4V136.8z"/>
<path class="st0" d="M47,136.8h2.9v-0.2h-0.4c-0.4,0-0.5-0.1-0.5-0.1v-5.4h0.3c0.8,0,1.5,0.5,1.7,1.3l0.1,0.3h0.2l-0.2-1.8h-5.2
	l-0.3,1.8h0.2l0.1-0.4c0.3-0.7,0.9-1.2,1.7-1.3h0.3v5.4c0,0.1-0.1,0.1-0.4,0.2H47L47,136.8z"/>
<path class="st0" d="M134.9,137.7h3.2v-0.2h-0.5c-0.4,0-0.5-0.1-0.5-0.2v-5.4l-2.4,0.4v0.2l1.2,0.1v4.7c0,0.1-0.1,0.2-0.5,0.2h-0.5
	V137.7z"/>
<path class="st0" d="M139,136.7l2.4-3.4l0,0v3.4H139z M141.4,139.9h1.1v-2.3h1.2l0.2-0.9h-1.4v-4.8H142l-3.8,5.5v0.2h3.2V139.9z"/>
<path class="st0" d="M147.5,137.6c-1.1,0-1.7-1.1-1.7-2.9c0-1.4,0.7-2.6,1.7-2.6c1.1,0,1.7,1.1,1.7,2.8
	C149.2,136.4,148.5,137.6,147.5,137.6z M147.4,137.9c1.6,0.1,3-1.2,3-2.8c0-0.1,0-0.1,0-0.2c0.1-1.6-1.2-2.9-2.8-3
	c-0.1,0-0.1,0-0.2,0c-1.6,0-3,1.3-3,2.9c0,0.1,0,0.1,0,0.2c-0.1,1.6,1.1,2.9,2.7,3C147.3,137.9,147.3,137.9,147.4,137.9L147.4,137.9
	z"/>
<path class="st0" d="M155.7,135.7c-0.6,0-0.9-0.6-0.9-1.6s0.4-1.5,0.9-1.5c0.7,0,1,0.7,1,1.7C156.6,135.2,156.3,135.7,155.7,135.7z
	 M155.9,140.4c-1,0-1.8-0.5-1.8-1.3c0-0.5,0.3-0.9,0.7-1.1c0.5,0,1-0.1,1.4,0c1,0,1.4,0.4,1.4,1
	C157.6,139.8,156.9,140.4,155.9,140.4L155.9,140.4z M155.2,140.7c1.9,0,3.2-1,3.2-2.3c0-0.9-0.7-1.5-1.8-1.5c-0.4,0-1.1,0-1.5,0
	c-0.6,0-0.9-0.1-0.9-0.5c0-0.3,0.3-0.5,0.6-0.6c0.2,0,0.5,0.1,0.7,0.1c1.1,0.1,2.1-0.7,2.2-1.8c0,0,0,0,0-0.1c0-0.4-0.2-0.7-0.4-1
	l0,0l1.2,0.2l0.1-0.7l-1.6,0.2c-0.4-0.3-0.9-0.4-1.4-0.4c-1.1-0.1-2.1,0.7-2.1,1.8l0,0c0,0.7,0.4,1.3,1.1,1.6l0,0
	c-0.6,0.2-1.3,0.6-1.3,1.2c0,0.5,0.5,0.9,1.2,1l0,0c-0.7,0.3-1.4,0.7-1.4,1.4C153.1,140.2,153.9,140.7,155.2,140.7L155.2,140.7z"/>
<path class="st0" d="M209.5,139.9h0.9l3.4-7.7V132h-4.7l-0.3,2.2h0.2l0.1-0.3c0.2-0.7,0.5-0.8,2.1-0.8h1.8l0,0L209.5,139.9z"/>
<path class="st0" d="M214.7,137.7h3.2v-0.2h-0.5c-0.4,0-0.5-0.1-0.5-0.2v-5.4l-2.4,0.4v0.2l1.2,0.1v4.7c0,0.1-0.1,0.2-0.5,0.2h-0.5
	V137.7z"/>
<path class="st0" d="M219.6,140.1c1.6,0,2.9-1.2,3-2.7c0-1.3-1.1-2.4-3.4-2.8l0.4-1.5h3.1l0.2-1.1h-3.3l-0.9,3.7
	c1.8,0.3,2.9,1.1,2.9,2.4c0.1,0.9-0.6,1.7-1.5,1.8l0,0c-0.2,0-0.3,0-0.5-0.1c0-0.5-0.3-1.1-0.9-1.1c-0.3,0-0.6,0.3-0.6,0.6l0,0
	C218.1,139.8,218.6,140.1,219.6,140.1z"/>
<path class="st0" d="M228,135.7c-0.6,0-0.9-0.6-0.9-1.6s0.4-1.5,0.9-1.5c0.7,0,1,0.7,1,1.7C229,135.2,228.6,135.7,228,135.7z
	 M228.2,140.4c-1,0-1.8-0.5-1.8-1.3c0-0.5,0.3-0.9,0.7-1.1c0.5,0,1-0.1,1.4,0c1,0,1.4,0.4,1.4,1
	C229.9,139.8,229.2,140.4,228.2,140.4L228.2,140.4z M227.6,140.7c1.9,0,3.2-1,3.2-2.3c0-0.9-0.7-1.5-1.8-1.5c-0.4,0-1.1,0-1.5,0
	c-0.6,0-0.9-0.1-0.9-0.5c0-0.3,0.3-0.5,0.6-0.6c0.2,0,0.5,0.1,0.7,0.1c1.1,0.1,2.1-0.7,2.2-1.8c0,0,0,0,0-0.1c0-0.4-0.2-0.7-0.4-1
	l0,0l1.2,0.2l0.1-0.7l-1.6,0.2c-0.4-0.3-0.9-0.4-1.4-0.4c-1.1-0.1-2.1,0.7-2.1,1.8l0,0c0,0.7,0.4,1.3,1.1,1.6l0,0
	c-0.6,0.2-1.3,0.6-1.3,1.2c0,0.5,0.5,0.9,1.2,1l0,0c-0.7,0.3-1.4,0.7-1.4,1.4C225.5,140.2,226.2,140.7,227.6,140.7L227.6,140.7z"/>
<path class="st0" d="M283.9,137.7c-0.9-0.1-1.6-0.9-1.6-1.8c0-0.7,0.3-1.3,0.9-1.7c1.1,0.5,2.2,1,2.2,2.1c0,0.7-0.6,1.4-1.3,1.4
	C283.9,137.7,283.9,137.7,283.9,137.7z M284.3,133.4c-1-0.5-1.9-1-1.9-1.9c-0.1-0.7,0.5-1.3,1.1-1.4c0,0,0,0,0.1,0
	c0.9,0,1.4,0.9,1.4,1.8C285,132.5,284.8,133.1,284.3,133.4L284.3,133.4z M283.7,137.9c1.3,0.1,2.5-0.9,2.6-2.2l0,0
	c0-1.1-0.8-1.7-1.8-2.1l0,0c0.9-0.3,1.6-0.9,1.6-1.6c0-1.1-1-1.9-2.4-1.9c-1.2-0.1-2.3,0.9-2.4,2.1c0,0,0,0,0,0.1
	c0,0.9,0.7,1.5,1.6,1.9l0,0c-1.1,0.3-1.8,0.9-1.8,1.8C281.1,137.1,282.3,137.9,283.7,137.9L283.7,137.9z"/>
<path class="st0" d="M287.4,137.7h3.2v-0.2h-0.5c-0.4,0-0.5-0.1-0.5-0.2v-5.4l-2.4,0.4v0.2l1.2,0.1v4.7c0,0.1-0.1,0.2-0.5,0.2h-0.5
	L287.4,137.7z"/>
<path class="st0" d="M294.2,137.6c-1.1,0-1.7-1.1-1.7-2.9c0-1.4,0.7-2.6,1.7-2.6c1.1,0,1.7,1.1,1.7,2.8
	C295.9,136.4,295.3,137.6,294.2,137.6z M294.2,137.9c1.6,0.1,3-1.2,3-2.8c0-0.1,0-0.1,0-0.2c0.1-1.6-1.2-2.9-2.8-3
	c-0.1,0-0.1,0-0.2,0c-1.6,0-3,1.3-3,2.9c0,0.1,0,0.1,0,0.2c-0.1,1.6,1.1,2.9,2.7,3C294,137.9,294.1,137.9,294.2,137.9L294.2,137.9z"
	/>
<path class="st0" d="M302.4,135.7c-0.6,0-0.9-0.6-0.9-1.6s0.4-1.5,0.9-1.5c0.7,0,1,0.7,1,1.7C303.4,135.2,303.1,135.7,302.4,135.7z
	 M302.6,140.4c-1,0-1.8-0.5-1.8-1.3c0-0.5,0.3-0.9,0.7-1.1c0.5,0,1-0.1,1.4,0c1,0,1.4,0.4,1.4,1
	C304.4,139.8,303.7,140.4,302.6,140.4L302.6,140.4z M302,140.7c1.9,0,3.2-1,3.2-2.3c0-0.9-0.7-1.5-1.8-1.5c-0.4,0-1.1,0-1.5,0
	c-0.6,0-0.9-0.1-0.9-0.5c0-0.3,0.3-0.5,0.6-0.6c0.2,0,0.5,0.1,0.7,0.1c1.1,0.1,2.1-0.7,2.2-1.8c0,0,0,0,0-0.1c0-0.4-0.2-0.7-0.4-1
	l0,0l1.2,0.2l0.1-0.7l-1.6,0.2c-0.4-0.3-0.9-0.4-1.4-0.4c-1.1-0.1-2.1,0.7-2.1,1.8l0,0c0,0.7,0.4,1.3,1.1,1.6l0,0
	c-0.6,0.2-1.3,0.6-1.3,1.2c0,0.5,0.5,0.9,1.2,1l0,0c-0.7,0.3-1.4,0.7-1.4,1.4C299.9,140.2,300.7,140.7,302,140.7L302,140.7z"/>
<rect x="3.3" y="146.1" class="st0" width="326.5" height="0.5"/>
<rect x="3.3" y="120.6" class="st0" width="326.5" height="0.5"/>
<rect x="3.3" y="95.2" class="st0" width="326.5" height="0.5"/>
</svg>
